<?xml version="1.0" standalone="no"?>
<!DOCTYPE svg PUBLIC "-//W3C//DTD SVG 20010904//EN"
 "http://www.w3.org/TR/2001/REC-SVG-20010904/DTD/svg10.dtd">
<svg version="1.0" xmlns="http://www.w3.org/2000/svg"
 width="1200.000000pt" height="627.000000pt" viewBox="0 0 1200.000000 627.000000"
 preserveAspectRatio="xMidYMid meet">

<g transform="translate(0.000000,627.000000) scale(0.100000,-0.100000)"
fill="#000000" stroke="none">
<path d="M0 3135 l0 -3135 6000 0 6000 0 0 3135 0 3135 -6000 0 -6000 0 0
-3135z m3115 1474 c47 -13 105 -54 105 -75 0 -19 -69 -52 -78 -38 -22 34 -85
43 -132 19 -38 -20 -50 -43 -50 -100 0 -91 87 -134 168 -85 l34 21 35 -23 36
-22 -38 -33 c-57 -49 -116 -62 -187 -43 -111 31 -169 166 -119 275 24 52 59
83 112 100 55 17 65 17 114 4z m-2365 -149 l0 -150 65 0 65 0 0 -40 0 -40
-110 0 -110 0 0 190 0 190 45 0 45 0 0 -150z m3120 -41 l0 -190 -57 0 c-32 0
-79 -1 -104 -2 -29 -1 -55 5 -72 16 -78 51 -78 193 0 244 28 18 96 23 126 9
15 -7 17 -2 17 46 0 30 3 58 7 61 3 4 24 7 45 7 l38 0 0 -191z m-1519 81 c27
0 29 -2 29 -40 0 -38 -2 -40 -30 -40 -30 0 -30 -1 -30 -54 0 -52 1 -55 30 -61
26 -6 30 -11 30 -41 0 -34 0 -34 -45 -34 -35 0 -52 6 -70 25 -22 21 -25 33
-25 94 0 65 -2 70 -22 73 -19 2 -24 10 -26 41 -3 34 -1 37 22 37 19 0 25 6 28
27 2 20 11 29 38 38 l35 12 3 -39 c3 -35 6 -38 33 -38z m-1246 -4 c38 -16 64
-50 74 -98 14 -65 9 -68 -91 -68 -67 0 -89 -3 -85 -12 2 -9 25 -13 63 -13 72
0 112 -18 92 -42 -17 -21 -71 -43 -105 -43 -15 0 -47 9 -71 20 -34 15 -47 29
-63 66 -55 123 61 242 186 190z m348 4 l57 1 0 -136 0 -136 -57 1 c-32 0 -72
-2 -89 -5 -76 -16 -144 50 -144 140 0 90 62 152 140 140 19 -3 61 -5 93 -5z
m277 -40 c0 -45 -2 -50 -22 -50 -43 0 -58 -27 -58 -107 l0 -73 -40 0 -40 0 0
135 0 135 40 0 c31 0 40 -4 40 -17 0 -15 2 -15 18 -1 9 9 26 18 37 21 11 2 21
5 23 6 1 0 2 -21 2 -49z m257 28 c30 -24 43 -76 43 -168 l0 -90 -45 0 -45 0 0
88 c0 93 -8 112 -45 112 -37 0 -45 -19 -45 -112 l0 -88 -40 0 -40 0 0 135 0
135 40 0 c22 0 40 -4 40 -9 0 -6 12 -3 28 5 30 17 85 13 109 -8z m633 4 c128
-64 95 -250 -48 -269 -57 -8 -118 26 -143 80 -23 53 -23 71 0 124 33 72 119
102 191 65z m833 4 c18 -7 43 -26 57 -41 21 -22 25 -36 25 -90 0 -57 -3 -67
-30 -95 -62 -65 -154 -63 -214 5 -26 31 -31 44 -31 90 0 44 5 59 27 86 46 55
106 71 166 45z m662 0 c37 -16 61 -46 75 -97 18 -62 10 -69 -91 -69 -51 0 -89
-4 -89 -10 0 -15 46 -23 85 -16 24 5 42 2 60 -10 24 -16 25 -18 9 -35 -46 -51
-154 -49 -208 6 -113 113 11 293 159 231z m4660 -441 c-5 -2 -43 -11 -84 -20
-203 -47 -402 -191 -526 -384 -26 -40 -49 -71 -51 -68 -7 6 54 124 95 185 104
151 271 254 456 281 59 8 130 12 110 6z m-7715 -375 l0 -200 -40 0 -40 0 0
193 c0 107 3 197 7 200 3 4 21 7 40 7 l33 0 0 -200z m1974 171 c21 -23 14 -56
-15 -72 -43 -23 -92 44 -57 79 18 18 53 14 72 -7z m-2169 -5 c56 -24 82 -97
49 -144 -14 -21 -14 -24 5 -48 25 -32 28 -90 5 -122 -28 -40 -66 -52 -169 -52
l-95 0 0 190 0 190 85 0 c51 0 99 -6 120 -14z m945 -98 l0 -113 38 57 c37 57
38 58 85 58 54 0 54 4 -5 -77 -21 -29 -38 -55 -38 -58 0 -4 20 -33 45 -65 25
-32 45 -61 45 -64 0 -3 -19 -6 -43 -6 -41 0 -45 3 -85 57 l-42 57 0 -57 0 -57
-40 0 -40 0 0 190 0 190 40 0 40 0 0 -112z m580 51 c0 -55 2 -60 18 -53 9 5
36 8 59 8 76 1 102 -49 103 -196 l0 -78 -45 0 -45 0 0 88 c0 93 -8 112 -45
112 -37 0 -45 -19 -45 -112 l0 -88 -45 0 -45 0 0 190 0 190 45 0 45 0 0 -61z
m1378 46 c77 -33 115 -91 115 -175 0 -61 -17 -101 -60 -142 -41 -39 -74 -48
-179 -48 l-94 0 0 190 0 190 90 0 c59 0 104 -5 128 -15z m438 -170 c35 -99 63
-183 63 -187 1 -5 -21 -8 -48 -8 -47 0 -50 2 -56 30 -7 30 -7 30 -76 30 -69 0
-70 -1 -80 -30 -10 -28 -15 -30 -59 -30 l-49 0 60 178 c32 97 61 183 64 190 3
9 22 12 62 10 l57 -3 62 -180z m1395 147 c33 -37 39 -93 13 -130 -8 -12 -11
-22 -6 -22 5 0 18 -16 27 -36 15 -31 15 -43 6 -76 -19 -62 -55 -78 -178 -78
l-103 0 0 191 0 191 106 -4 c105 -3 106 -3 135 -36z m3226 -34 c-3 -7 -5 -2
-5 12 0 14 2 19 5 13 2 -7 2 -19 0 -25z m-7512 -48 c73 -35 101 -128 59 -198
-25 -43 -94 -76 -141 -69 -139 23 -168 206 -43 269 45 23 74 23 125 -2z m308
6 c33 -13 67 -41 67 -55 0 -3 -13 -14 -29 -24 -26 -15 -31 -15 -59 -2 -35 18
-78 5 -88 -27 -18 -57 34 -100 88 -73 28 13 33 13 59 -2 16 -10 29 -20 29 -24
0 -16 -63 -59 -95 -65 -158 -29 -230 196 -85 268 42 22 70 22 113 4z m574 3
c34 -13 74 -49 67 -61 -3 -4 -18 -15 -35 -23 -26 -14 -31 -14 -53 1 -22 13
-29 14 -53 2 -24 -11 -28 -19 -28 -53 0 -34 4 -42 28 -53 24 -12 31 -11 52 2
22 15 27 15 60 -1 19 -9 35 -20 35 -24 0 -16 -63 -59 -95 -65 -71 -13 -133 21
-160 88 -46 117 65 232 182 187z m646 1 l57 1 0 -136 0 -136 -57 0 c-32 0 -79
-1 -104 -2 -80 -3 -131 52 -131 139 0 85 68 151 142 139 19 -3 61 -5 93 -5z
m451 0 c49 -18 66 -64 66 -172 l0 -98 -45 0 -45 0 0 88 c0 94 -8 112 -47 112
-33 0 -43 -29 -43 -119 l0 -81 -40 0 -40 0 0 135 0 135 40 0 c22 0 40 -5 40
-11 0 -5 10 -3 22 5 26 18 56 20 92 6z m1225 -8 c64 -34 90 -126 56 -195 -31
-63 -106 -93 -164 -64 l-31 15 0 -64 0 -64 -40 0 -40 0 0 190 0 190 40 0 c22
0 40 -4 40 -9 0 -6 12 -3 28 5 36 19 70 18 111 -4z m342 -5 c39 -26 69 -79 69
-122 0 -43 -30 -96 -69 -122 -39 -26 -74 -29 -113 -9 l-28 15 0 -65 0 -64 -40
0 -40 0 0 190 0 190 40 0 c22 0 40 -4 40 -9 0 -6 12 -3 28 5 39 20 74 17 113
-9z m268 9 c51 -27 55 -41 19 -64 -23 -15 -36 -18 -45 -11 -6 6 -22 9 -35 6
-20 -3 -18 -6 17 -21 74 -31 84 -39 94 -68 20 -58 -22 -108 -96 -115 -39 -4
-55 0 -83 19 -43 29 -44 43 -5 68 25 17 31 17 38 5 9 -16 67 -21 67 -6 0 5
-22 17 -50 26 -57 19 -80 45 -80 90 0 67 90 106 159 71z m-2089 -131 l0 -135
-40 0 -40 0 0 135 0 135 40 0 40 0 0 -135z m2736 58 l28 -77 12 30 c7 16 18
50 25 77 13 47 13 47 56 47 24 0 43 -4 43 -8 0 -13 -89 -261 -104 -290 -22
-42 -60 -72 -100 -79 l-36 -6 0 41 c0 34 4 41 24 46 42 10 40 37 -14 165 -27
66 -50 123 -50 126 0 3 20 5 44 5 l44 0 28 -77z m3285 -116 l-24 -22 19 27
c10 14 21 24 23 22 3 -3 -6 -15 -18 -27z m-313 -345 c9 -6 5 -15 -14 -33 -85
-79 -94 -245 -19 -343 38 -50 124 -96 180 -96 71 0 156 54 190 120 38 74 36
203 -6 261 -11 16 -19 32 -16 35 9 9 88 -16 91 -29 15 -55 36 -191 36 -230 0
-98 -50 -159 -158 -196 -115 -39 -134 -75 -124 -241 4 -85 3 -92 -22 -130 -14
-22 -30 -40 -34 -40 -4 0 -15 36 -25 79 -18 82 -55 148 -97 178 -51 36 -257
27 -341 -15 l-37 -19 -89 86 c-116 112 -155 168 -95 137 87 -44 154 -24 204
62 27 48 31 65 31 126 0 77 -18 124 -70 186 -47 57 -124 75 -183 45 -26 -13
-30 -13 -30 -1 0 23 58 37 245 59 62 8 370 6 383 -1z m211 -21 c58 -30 66 -45
64 -122 -2 -110 -53 -198 -136 -238 -79 -38 -123 -21 -166 63 -86 173 78 378
238 297z m-692 -71 c37 -22 67 -83 59 -120 -2 -14 -9 -44 -14 -66 -25 -117
-129 -184 -178 -116 -59 79 -59 215 0 281 40 44 84 51 133 21z m-6749 -192 l2
-198 -40 0 -40 0 0 201 0 200 38 -3 37 -3 3 -197z m2662 2 l0 -200 -40 0 -40
0 0 200 0 200 40 0 40 0 0 -200z m-2805 166 c18 -27 11 -52 -17 -67 -42 -23
-90 45 -56 79 20 20 56 14 73 -12z m613 12 c19 -19 15 -66 -7 -78 -27 -14 -37
-13 -55 6 -32 31 -14 84 29 84 12 0 26 -5 33 -12z m1042 -4 c22 -9 49 -29 60
-44 l20 -28 -36 -22 -35 -22 -23 21 c-24 22 -52 27 -76 11 -25 -16 1 -43 61
-65 78 -29 95 -41 109 -74 52 -126 -135 -216 -245 -119 -43 37 -44 51 -3 76
l32 20 29 -24 c29 -25 71 -31 97 -14 24 15 0 41 -57 61 -68 23 -99 44 -113 79
-24 58 7 124 70 149 36 14 64 13 110 -5z m210 -3 c16 -31 12 -49 -15 -67 -23
-15 -27 -15 -50 0 -14 9 -25 25 -25 36 0 45 69 69 90 31z m1684 8 c47 -12 120
-65 110 -80 -3 -5 -18 -16 -34 -24 -27 -14 -32 -14 -62 5 -85 52 -186 -8 -174
-104 7 -55 42 -88 103 -93 40 -4 53 -1 78 19 l30 23 -50 5 c-50 5 -50 5 -53
43 l-3 37 101 0 101 0 -6 -47 c-8 -54 -37 -110 -68 -133 -151 -109 -365 32
-317 209 18 68 77 125 145 142 44 10 52 10 99 -2z m-4059 -13 c56 -24 82 -97
49 -144 -14 -21 -14 -24 5 -48 25 -32 28 -90 5 -122 -28 -40 -66 -52 -169 -52
l-95 0 0 190 0 190 85 0 c51 0 99 -6 120 -14z m993 -178 l2 -188 -45 0 c-25 0
-45 4 -45 9 0 6 -12 3 -27 -5 -38 -19 -72 -18 -110 6 -48 29 -67 65 -67 125 0
60 19 96 67 125 38 24 72 25 110 6 l27 -15 0 65 0 65 43 -3 42 -3 3 -187z
m424 64 c26 -25 37 -80 38 -174 l0 -78 -45 0 -45 0 0 88 c0 93 -8 112 -45 112
-37 0 -45 -19 -45 -112 l0 -88 -45 0 -45 0 0 136 0 135 59 -3 c33 -1 63 1 68
6 13 13 85 -1 105 -22z m258 13 c17 -9 30 -11 30 -5 0 5 18 10 41 10 l40 0 -3
-156 -3 -156 -36 -32 c-58 -54 -153 -56 -207 -6 -29 27 -28 32 9 53 29 16 33
16 49 2 25 -23 76 -19 94 7 27 37 21 51 -14 33 -84 -44 -180 22 -180 125 0
103 95 169 180 125z m957 0 c20 -14 25 -14 57 2 47 22 101 9 130 -30 17 -24
22 -46 24 -133 l4 -104 -46 0 -45 0 -3 98 -3 97 -27 3 c-37 4 -48 -25 -48
-124 l0 -74 -40 0 -40 0 0 88 c0 91 -8 112 -42 112 -28 0 -38 -33 -38 -119 l0
-81 -40 0 -40 0 0 135 0 135 40 0 c22 0 40 -5 40 -11 0 -5 10 -3 22 5 28 20
67 20 95 1z m478 1 c47 -20 75 -69 75 -131 0 -62 -28 -111 -75 -131 -44 -18
-69 -18 -105 1 l-30 16 0 -66 0 -65 -40 0 -40 0 0 190 0 190 40 0 c22 0 40 -5
40 -10 0 -6 12 -4 28 4 35 19 64 20 107 2z m454 -4 c49 -24 74 -63 75 -114 l1
-43 -92 -3 c-51 -1 -93 -7 -93 -12 0 -15 46 -23 86 -15 47 8 93 -18 72 -42
-17 -21 -71 -43 -105 -43 -41 0 -106 36 -127 70 -10 17 -18 50 -18 75 0 109
106 176 201 127z m854 4 c15 -8 27 -11 27 -5 0 5 18 9 40 9 l40 0 0 -135 0
-135 -40 0 c-22 0 -40 5 -40 10 0 6 -13 4 -30 -5 -38 -20 -68 -19 -109 3 -43
23 -71 74 -71 127 0 103 99 174 183 131z m364 -1 c19 -13 24 -13 50 0 36 19
66 19 103 0 44 -23 50 -43 50 -159 l0 -106 -40 0 -40 0 0 88 c0 91 -8 112 -42
112 -28 0 -38 -33 -38 -119 l0 -81 -40 0 -39 0 -3 91 c-2 75 -6 94 -20 103
-13 8 -23 8 -35 0 -15 -9 -19 -28 -21 -103 l-3 -91 -39 0 -40 0 0 135 0 135
40 0 c22 0 40 -5 40 -11 0 -5 10 -3 22 5 28 20 67 20 95 1z m452 -3 c49 -24
74 -63 75 -114 l1 -43 -92 -3 c-51 -1 -93 -7 -93 -12 0 -15 46 -23 86 -15 47
8 93 -18 72 -42 -17 -21 -71 -43 -105 -43 -41 0 -106 36 -127 70 -10 18 -18
50 -18 76 0 109 106 175 201 126z m280 4 c51 -27 55 -41 19 -64 -23 -15 -36
-18 -45 -11 -6 6 -22 9 -35 6 -20 -3 -18 -6 17 -21 74 -31 84 -39 94 -68 20
-58 -22 -108 -96 -115 -39 -4 -55 0 -83 19 -43 29 -44 43 -5 68 25 17 31 17
38 5 9 -16 67 -21 67 -6 0 5 -22 17 -50 26 -57 19 -80 45 -80 90 0 67 90 106
159 71z m-5319 -85 c0 -96 9 -115 52 -109 33 4 48 43 48 126 l0 72 40 0 40 0
0 -135 0 -135 -40 0 c-22 0 -40 5 -40 10 0 6 -13 4 -30 -5 -36 -19 -63 -19
-99 -1 -40 21 -51 56 -51 166 l0 100 40 0 40 0 0 -89z m320 -46 l0 -135 -40 0
-40 0 0 135 0 135 40 0 40 0 0 -135z m620 0 l0 -135 -45 0 -45 0 0 135 0 135
45 0 45 0 0 -135z m1240 0 l0 -135 -40 0 -40 0 0 135 0 135 40 0 40 0 0 -135z
m7426 14 c-134 -87 -208 -129 -227 -129 -18 0 8 18 171 117 165 101 207 110
56 12z m-356 -149 c11 -1 10 -4 -5 -16 -18 -13 -21 -13 -32 3 -7 9 -13 28 -13
42 l1 26 17 -27 c9 -16 23 -28 32 -28z m256 -27 c-18 -27 -39 -58 -45 -70 -16
-31 -43 -183 -37 -206 3 -15 2 -17 -6 -9 -14 14 -11 133 4 186 10 31 99 146
114 146 2 0 -11 -21 -30 -47z m-1956 -173 c0 -11 -4 -20 -10 -20 -5 0 -10 2
-10 4 0 2 -3 11 -6 20 -4 11 -1 16 10 16 9 0 16 -8 16 -20z m-82 -13 c2 -12
-3 -17 -17 -17 -12 0 -21 6 -21 13 0 31 32 34 38 4z m142 3 c0 -11 -4 -20 -10
-20 -5 0 -10 2 -10 4 0 2 -3 11 -6 20 -4 11 -1 16 10 16 9 0 16 -8 16 -20z
m-207 -4 c3 -8 -1 -17 -9 -20 -9 -4 -14 1 -14 14 0 23 15 27 23 6z m2484 -102
c-1 -2 -15 7 -29 19 -22 18 -25 28 -21 57 l6 35 24 -54 c13 -29 22 -55 20 -57z
m-2560 74 c-3 -8 -6 -5 -6 6 -1 11 2 17 5 13 3 -3 4 -12 1 -19z m-856 -90
c-15 -34 -19 -38 -20 -20 -1 27 30 92 36 75 2 -6 -5 -31 -16 -55z m875 15 c9
-21 17 -58 18 -83 2 -43 4 -45 42 -57 21 -6 53 -12 71 -12 47 -1 61 -10 56
-32 -5 -16 -11 -18 -42 -13 -45 8 -117 38 -136 58 -8 8 -15 23 -15 33 0 10 -6
46 -14 81 -14 69 -5 82 20 25z m-780 -80 l4 -48 -14 50 c-18 61 -19 72 -5 58
6 -6 13 -33 15 -60z m939 27 c-3 -5 -10 -10 -16 -10 -5 0 -9 5 -9 10 0 6 7 10
16 10 8 0 12 -4 9 -10z m-981 -56 c-4 -20 0 -43 10 -62 9 -17 20 -48 25 -69 7
-29 9 -32 10 -13 1 14 6 32 11 40 7 11 10 7 10 -19 0 -19 10 -63 21 -97 30
-87 21 -130 -29 -151 -31 -13 -45 -14 -82 -4 -49 13 -108 60 -89 72 6 4 8 12
5 18 -5 7 -2 10 6 9 8 -2 12 5 10 17 l-4 20 16 -20 c23 -30 20 -1 -5 55 -18
39 -27 49 -58 56 -34 9 -36 11 -37 54 -1 40 -1 40 3 7 3 -29 10 -40 29 -47 14
-6 27 -10 28 -10 2 0 3 14 4 31 2 59 12 86 40 98 l27 13 -25 14 -25 13 32 1
c18 0 38 6 45 14 18 19 29 -1 22 -40z m1104 47 c9 -5 32 -15 49 -21 38 -14 34
-30 -8 -30 -17 0 -29 5 -29 13 0 8 -10 19 -23 24 -29 13 -57 0 -57 -27 0 -11
-7 -20 -15 -20 -21 0 -19 40 3 56 20 16 55 18 80 5z m631 6 c-2 -2 -17 -11
-34 -21 l-30 -17 24 20 c13 12 28 21 34 21 6 0 8 -1 6 -3z m-849 -41 c0 -8 -4
-18 -10 -21 -5 -3 -10 3 -10 14 0 12 5 21 10 21 6 0 10 -6 10 -14z m45 -26
c-5 -8 -11 -8 -17 -2 -6 6 -7 16 -3 22 5 8 11 8 17 2 6 -6 7 -16 3 -22z m50
10 c0 -7 -6 -15 -12 -17 -8 -3 -13 4 -13 17 0 13 5 20 13 18 6 -3 12 -11 12
-18z m109 4 c9 -22 8 -24 -9 -24 -8 0 -15 9 -15 20 0 24 15 27 24 4z m1993
-104 c5 0 17 -37 26 -81 12 -62 24 -92 48 -123 l32 -41 -32 30 c-22 20 -38 50
-52 96 -11 38 -37 89 -60 119 -60 80 -68 101 -17 48 24 -27 49 -48 55 -48z
m-1851 61 c-9 -13 -95 -33 -117 -26 -37 12 -18 24 44 28 34 2 66 4 70 5 5 1 6
-2 3 -7z m-478 -50 c21 -11 56 -45 81 -80 65 -90 100 -114 155 -106 39 6 44 5
49 -15 6 -21 4 -22 -46 -17 -97 11 -182 25 -215 37 -18 7 -46 10 -62 8 -17 -3
-30 -1 -30 4 0 4 21 8 48 8 l47 0 3 50 c2 45 -1 54 -27 80 -17 18 -40 30 -55
30 -13 0 -28 5 -31 10 -10 17 44 11 83 -9z m309 13 c-3 -3 -12 -4 -19 -1 -8 3
-5 6 6 6 11 1 17 -2 13 -5z m-397 -44 c0 -5 -5 -10 -11 -10 -5 0 -7 5 -4 10 3
6 8 10 11 10 2 0 4 -4 4 -10z m429 6 c-2 -2 -17 -6 -34 -10 -22 -5 -26 -4 -15
4 14 9 59 15 49 6z m-372 -42 c-3 -3 -12 -4 -19 -1 -8 3 -5 6 6 6 11 1 17 -2
13 -5z m449 -16 c16 -11 54 -45 84 -74 l55 -53 100 34 c55 19 106 35 113 35 8
0 25 9 39 20 14 11 34 20 45 20 18 0 18 -1 1 -27 -10 -15 -17 -34 -15 -43 9
-53 -247 -78 -355 -35 -27 11 -49 29 -62 51 l-21 35 21 -12 c17 -9 20 -8 17 2
-5 14 -59 47 -98 60 -22 6 -21 7 11 8 23 1 47 -7 65 -21z m-493 -3 c-3 -9 -8
-14 -10 -11 -3 3 -2 9 2 15 9 16 15 13 8 -4z m597 -17 c-1 -31 -1 -32 -15 -14
-11 14 -12 23 -4 33 17 19 19 17 19 -19z m2193 -93 c21 -26 37 -57 37 -68 0
-16 -5 -14 -25 14 -55 76 -65 95 -64 129 l1 35 7 -31 c5 -17 24 -53 44 -79z
m-2713 75 c0 -5 -2 -10 -4 -10 -3 0 -8 5 -11 10 -3 6 -1 10 4 10 6 0 11 -4 11
-10z m-7527 -173 l42 -4 -47 -1 -48 -2 2 93 2 92 3 -87 4 -87 42 -4z m905 157
c22 -15 30 -48 13 -59 -6 -3 -3 -18 7 -34 16 -28 15 -31 -2 -50 -14 -15 -31
-21 -63 -21 l-43 0 0 90 0 90 33 0 c18 0 43 -7 55 -16z m269 -121 c-2 -27 -3
-5 -3 47 0 52 1 74 3 48 2 -27 2 -69 0 -95z m162 45 c0 -51 -3 -88 -5 -82 -4
9 -13 9 -34 1 -37 -14 -77 3 -86 38 -8 33 -1 50 32 71 25 17 28 17 55 1 l29
-16 0 39 c0 22 2 40 5 40 3 0 5 -42 4 -92z m304 85 c-43 -4 -43 -4 -43 -44 l0
-39 43 -2 42 -1 -42 -4 c-41 -4 -43 -5 -43 -38 0 -33 1 -34 48 -38 l47 -3 -52
-2 -53 -2 0 90 0 90 48 -2 47 -1 -42 -4z m8487 -37 c0 -33 -7 -52 -26 -75 -24
-29 -25 -33 -12 -54 8 -12 18 -34 22 -49 6 -25 4 -28 -18 -28 -29 0 -35 20
-25 85 6 42 48 164 57 165 1 0 2 -20 2 -44z m-9965 -31 c37 -36 31 -45 -30
-45 -38 0 -55 -4 -55 -13 0 -34 61 -50 90 -24 12 10 12 9 1 -5 -14 -18 -57
-24 -77 -10 -13 9 -34 46 -34 62 0 17 47 60 65 60 9 0 27 -11 40 -25z m98 10
c-17 -7 -34 -23 -38 -35 -9 -29 19 -70 50 -70 50 0 71 54 38 94 -15 17 -15 19
-1 8 13 -10 17 -10 21 0 3 7 5 -16 5 -52 0 -36 -2 -60 -4 -53 -4 9 -11 9 -29
1 -75 -34 -128 70 -57 111 9 6 24 10 32 10 8 0 1 -6 -17 -14z m151 -6 c-10
-11 -21 -41 -25 -67 l-6 -47 -2 62 c-1 50 2 61 13 57 8 -3 17 -1 21 5 3 6 9
11 12 11 3 0 -2 -9 -13 -21z m140 -1 c10 -13 15 -41 15 -68 l-2 -45 -6 50 c-8
59 -16 75 -40 75 -27 0 -45 -26 -52 -79 -6 -46 -6 -46 -8 16 -1 50 2 61 13 57
8 -3 17 -1 21 5 11 18 43 12 59 -11z m1256 7 c11 -13 15 -13 21 -3 5 8 9 -14
9 -52 0 -36 -4 -60 -8 -53 -5 8 -13 9 -22 3 -25 -16 -58 -11 -80 12 -27 29
-25 54 5 83 28 29 57 32 75 10z m113 -3 c-16 -12 -23 -30 -26 -67 -3 -47 -3
-47 -5 13 -1 37 2 61 7 57 5 -3 12 -1 16 5 3 5 12 10 18 10 7 0 2 -8 -10 -18z
m131 2 c11 -10 15 -32 14 -67 l-1 -52 -6 54 c-7 60 -28 84 -58 65 -12 -7 -20
-29 -24 -65 l-6 -54 -1 63 c-1 37 2 61 7 57 5 -3 12 -1 16 5 9 15 41 12 59 -6z
m-1043 -102 c34 -4 47 13 52 68 3 36 4 33 5 -20 1 -40 -2 -60 -7 -51 -6 9 -11
10 -15 2 -9 -15 -49 -14 -64 1 -7 7 -11 34 -10 63 l1 50 6 -55 c5 -50 8 -55
32 -58z m106 16 c-2 -18 -4 -4 -4 32 0 36 2 50 4 33 2 -18 2 -48 0 -65z m8944
37 c-19 -38 -21 -50 -12 -82 6 -21 11 -41 11 -44 0 -4 -74 -10 -164 -14 -140
-6 -166 -10 -169 -24 -3 -11 -5 -10 -6 5 -1 13 9 26 25 34 26 14 27 28 9 85
l-7 20 13 -20 c6 -11 21 -30 32 -42 17 -19 18 -23 5 -23 -9 0 -22 -7 -29 -16
-12 -15 -2 -16 121 -9 74 4 138 9 142 11 3 2 1 19 -4 38 -13 41 -6 73 23 110
31 39 36 23 10 -29z m-9353 22 c2 -10 -3 -17 -12 -17 -18 0 -29 16 -21 31 9
14 29 6 33 -14z m772 3 c0 -11 -6 -20 -14 -20 -18 0 -29 16 -21 30 11 18 35
11 35 -10z m7044 -4 c-5 -14 -46 -36 -67 -36 -9 0 47 39 70 49 1 1 0 -5 -3
-13z m-1419 -66 c77 -11 141 -20 144 -20 2 0 -7 -9 -20 -19 -22 -17 -34 -18
-134 -10 -61 4 -130 8 -154 8 l-43 1 27 -37 c27 -38 27 -38 -15 5 -45 46 -45
51 5 76 37 19 22 20 190 -4z m3078 -72 c23 -34 37 -46 49 -42 10 3 26 -4 38
-16 11 -11 25 -18 31 -14 6 3 13 -4 16 -16 3 -13 11 -19 20 -16 9 4 13 0 11
-12 -2 -9 3 -16 10 -14 17 3 34 -46 27 -78 -4 -16 -3 -20 3 -12 7 11 10 10 16
-3 14 -37 5 -83 -26 -129 -32 -49 -40 -98 -20 -118 9 -9 17 -7 33 8 22 19 22
19 15 -4 -9 -27 9 -53 30 -45 9 3 14 -2 14 -16 0 -16 6 -21 28 -21 26 -1 26
-1 -13 -25 -47 -29 -113 -32 -216 -11 -144 31 -245 100 -268 183 -16 58 -13
81 19 144 25 49 28 66 24 111 l-4 53 20 -60 c19 -56 20 -63 5 -100 -16 -43
-19 -83 -9 -109 8 -22 24 -20 24 3 0 10 7 38 15 61 14 39 14 44 -2 56 -11 8
-13 13 -5 14 6 0 12 9 12 21 0 11 -4 17 -10 14 -5 -3 -10 -1 -10 4 0 6 4 11 9
11 4 0 7 16 4 34 -2 26 2 40 19 55 12 12 26 21 31 21 19 0 34 26 26 45 -4 11
-8 38 -8 60 1 22 3 33 6 25 3 -8 19 -36 36 -62z m90 30 l4 -23 8 23 c10 29 32
28 60 -2 l22 -24 -51 -7 c-36 -4 -46 -9 -36 -15 17 -11 5 -12 -28 -4 -19 6
-52 49 -52 69 0 3 15 5 34 5 28 0 35 -4 39 -22z m-2126 -10 c-3 -8 -6 -5 -6 6
-1 11 2 17 5 13 3 -3 4 -12 1 -19z m261 -45 c-10 -2 -28 -2 -40 0 -13 2 -5 4
17 4 22 1 32 -1 23 -4z m-1381 -41 c13 10 19 8 34 -11 10 -12 24 -19 30 -15 6
3 15 1 19 -5 10 -17 74 -30 93 -20 22 13 39 -13 31 -46 -8 -33 -43 -31 -60 4
l-12 24 -16 -32 c-9 -17 -22 -31 -28 -31 -6 0 -9 -3 -5 -6 3 -4 0 -19 -9 -35
-13 -26 -17 -27 -35 -16 -15 9 -19 19 -15 37 4 22 -3 31 -39 55 -36 25 -41 33
-33 48 7 14 5 24 -8 38 -18 20 -17 20 10 9 21 -8 32 -7 43 2z m-9 -135 c2 -16
-5 -34 -17 -46 -12 -12 -21 -25 -21 -30 0 -6 26 -15 59 -22 76 -14 86 -21 72
-45 -8 -15 -11 -15 -11 -4 -1 10 -4 8 -9 -5 -5 -11 -4 -25 1 -32 7 -9 7 -13
-1 -13 -16 0 -51 37 -51 55 0 8 -2 15 -4 15 -2 0 -47 9 -100 20 -90 18 -99 19
-122 4 -25 -17 -32 -34 -13 -34 5 0 7 -5 3 -12 -5 -8 -14 2 -26 27 -9 22 -18
45 -18 51 0 6 34 26 76 44 42 19 78 39 81 47 3 7 9 10 14 7 5 -3 16 -1 26 4
26 15 58 -2 61 -31z m3467 -29 l7 -68 -31 0 c-17 0 -31 5 -31 10 0 6 9 10 20
10 18 0 20 7 20 62 0 78 6 72 15 -14z m-2314 19 c-1 -12 -15 -9 -19 4 -3 6 1
10 8 8 6 -3 11 -8 11 -12z m255 -90 c21 -12 17 -44 -6 -50 -17 -4 -20 -2 -15
14 4 11 2 19 -4 19 -12 0 -15 33 -4 44 4 4 9 1 12 -6 2 -7 10 -17 17 -21z
m-328 -4 c-2 -9 -8 -18 -15 -20 -7 -3 -9 3 -6 16 6 25 26 28 21 4z m-1245
-160 c-6 -14 -8 -14 -20 3 -19 26 -16 36 7 24 12 -6 17 -16 13 -27z m167 -33
c20 -6 21 -8 5 -8 -11 0 -31 4 -45 8 -20 6 -21 8 -5 8 11 0 31 -4 45 -8z m120
0 c0 -5 -4 -10 -10 -10 -5 0 -10 -11 -10 -24 0 -13 -7 -26 -15 -30 -21 -8 -20
32 2 56 18 20 33 24 33 8z m-63 -16 c-3 -3 -12 -4 -19 -1 -8 3 -5 6 6 6 11 1
17 -2 13 -5z m1470 -76 c-17 -11 -57 -10 -57 1 0 5 9 11 20 14 11 3 20 13 20
24 1 15 3 13 15 -7 10 -19 10 -27 2 -32z"/>
<path d="M3680 4410 c-11 -11 -20 -31 -20 -45 0 -29 32 -65 58 -65 34 0 62 29
62 64 0 59 -59 87 -100 46z"/>
<path d="M1002 4418 c-22 -22 -13 -28 43 -28 30 0 55 4 55 8 0 17 -25 32 -55
32 -17 0 -36 -5 -43 -12z"/>
<path d="M1322 4414 c-45 -31 -15 -114 41 -114 51 0 77 78 39 113 -23 21 -51
22 -80 1z"/>
<path d="M2522 4414 c-44 -30 -18 -114 36 -114 18 0 62 46 62 65 0 19 -44 65
-62 65 -8 0 -24 -7 -36 -16z"/>
<path d="M3373 4420 c-25 -10 -38 -48 -28 -80 13 -42 93 -46 109 -5 22 58 -25
107 -81 85z"/>
<path d="M4012 4418 c-22 -22 -13 -28 43 -28 30 0 55 4 55 8 0 17 -25 32 -55
32 -17 0 -36 -5 -43 -12z"/>
<path d="M750 3744 c0 -34 1 -35 36 -32 71 6 68 68 -2 68 -32 0 -34 -2 -34
-36z"/>
<path d="M750 3596 c0 -35 1 -36 38 -36 48 0 65 12 60 41 -3 21 -9 24 -50 27
l-48 3 0 -35z"/>
<path d="M3640 3664 l0 -107 53 7 c41 5 58 13 81 38 25 27 28 36 23 77 -7 63
-40 91 -108 91 l-49 0 0 -106z"/>
<path d="M4067 3696 c-23 -73 -23 -76 22 -76 l39 0 -18 61 c-10 34 -21 63 -23
65 -2 2 -11 -20 -20 -50z"/>
<path d="M5457 3773 c-4 -3 -7 -19 -7 -35 0 -28 2 -29 43 -26 36 3 43 7 45 27
2 13 -2 28 -10 32 -16 10 -62 12 -71 2z"/>
<path d="M5450 3594 l0 -35 46 3 c87 6 84 68 -2 68 -44 0 -44 0 -44 -36z"/>
<path d="M1223 3670 c-25 -10 -38 -48 -29 -78 4 -11 20 -25 36 -32 25 -10 34
-10 55 4 33 22 35 78 3 100 -25 18 -33 19 -65 6z"/>
<path d="M2710 3660 c-11 -11 -20 -31 -20 -45 0 -29 32 -65 58 -65 34 0 62 29
62 64 0 59 -59 87 -100 46z"/>
<path d="M4414 3672 c-26 -17 -36 -53 -24 -83 31 -73 133 -31 114 47 -9 36
-59 57 -90 36z"/>
<path d="M4740 3660 c-39 -39 -11 -110 43 -110 32 0 57 30 57 67 0 56 -60 83
-100 43z"/>
<path d="M8452 2693 c-14 -14 -21 -30 -18 -39 3 -9 6 -20 6 -25 0 -12 92 -12
124 1 53 20 15 83 -52 86 -26 0 -43 -6 -60 -23z"/>
<path d="M8758 3029 c-22 -13 -24 -62 -2 -83 8 -9 17 -16 19 -16 2 0 11 7 19
16 21 20 20 47 -1 73 -14 16 -22 18 -35 10z"/>
<path d="M8124 2955 c-9 -21 13 -68 29 -62 20 6 15 71 -6 75 -9 2 -20 -4 -23
-13z"/>
<path d="M750 2994 c0 -34 1 -35 36 -32 71 6 68 68 -2 68 -32 0 -34 -2 -34
-36z"/>
<path d="M750 2846 c0 -35 1 -36 38 -36 48 0 65 12 60 41 -3 21 -9 24 -50 27
l-48 3 0 -35z"/>
<path d="M1667 2912 c-22 -25 -21 -75 1 -95 40 -37 102 -8 102 48 0 56 -67 87
-103 47z"/>
<path d="M2457 2912 c-36 -40 -9 -102 44 -102 30 0 43 9 58 37 31 59 -57 115
-102 65z"/>
<path d="M3867 2912 c-37 -40 -10 -112 41 -112 29 0 62 34 62 65 0 54 -69 85
-103 47z"/>
<path d="M4327 2923 c-4 -3 -7 -12 -7 -20 0 -9 15 -13 50 -13 51 0 60 6 38 28
-13 13 -70 17 -81 5z"/>
<path d="M5200 2910 c-39 -39 -11 -110 43 -110 42 0 75 56 55 93 -22 43 -65
50 -98 17z"/>
<path d="M5997 2923 c-4 -3 -7 -12 -7 -20 0 -9 15 -13 50 -13 51 0 60 6 38 28
-13 13 -70 17 -81 5z"/>
<path d="M7545 2321 c-3 -5 -1 -12 5 -16 5 -3 10 1 10 9 0 18 -6 21 -15 7z"/>
<path d="M7634 2100 c3 -14 6 -35 6 -47 0 -13 5 -23 10 -23 15 0 11 42 -6 70
l-15 25 5 -25z"/>
<path d="M1640 2044 l0 -35 42 3 c33 2 44 7 47 22 4 25 -24 46 -61 46 -25 0
-28 -3 -28 -36z"/>
<path d="M1640 1960 c0 -40 0 -40 40 -40 29 0 42 5 50 19 19 37 -7 60 -67 61
-20 0 -23 -5 -23 -40z"/>
<path d="M2052 2014 c-40 -28 -16 -94 35 -94 25 0 53 30 53 58 0 20 -33 52
-55 52 -6 0 -21 -7 -33 -16z"/>
<path d="M898 2008 l-23 -23 27 -3 c15 -2 42 -2 60 0 l33 3 -22 23 c-13 12
-30 22 -38 22 -8 0 -25 -10 -37 -22z"/>
<path d="M2550 2010 c-11 -11 -20 -26 -20 -33 0 -24 31 -57 55 -57 52 0 74 65
33 94 -30 21 -44 20 -68 -4z"/>
<path d="M7686 1619 c-15 -9 -16 -13 -5 -20 21 -13 27 -11 39 11 12 23 -2 27
-34 9z"/>
</g>
</svg>
