<?xml version="1.0" standalone="no"?>
<!DOCTYPE svg PUBLIC "-//W3C//DTD SVG 20010904//EN"
 "http://www.w3.org/TR/2001/REC-SVG-20010904/DTD/svg10.dtd">
<svg version="1.0" xmlns="http://www.w3.org/2000/svg"
 width="2000.000000pt" height="2250.000000pt" viewBox="0 0 2000.000000 2250.000000"
 preserveAspectRatio="xMidYMid meet">

<g transform="translate(0.000000,2250.000000) scale(0.100000,-0.100000)"
fill="#000000" stroke="none">
<path d="M9705 21427 c-800 -295 -960 -360 -1260 -511 -206 -104 -338 -183
-491 -292 -49 -35 -90 -61 -92 -59 -3 2 4 76 13 163 21 182 16 233 -26 264
-33 25 -82 17 -142 -23 -23 -15 -127 -109 -230 -208 -225 -216 -327 -300 -424
-348 -79 -39 -89 -40 -272 -13 -161 24 -356 -16 -535 -108 -268 -138 -485
-382 -601 -677 -31 -78 -32 -80 -71 -87 -70 -12 -316 -8 -449 8 -177 21 -336
21 -411 -1 -92 -27 -125 -48 -284 -180 -343 -287 -690 -617 -1326 -1256 -471
-475 -438 -430 -544 -744 -65 -190 -119 -310 -172 -378 -138 -179 -339 -386
-693 -711 -627 -577 -818 -803 -1025 -1214 -237 -473 -354 -937 -520 -2062
-57 -385 -101 -655 -130 -805 l-20 -100 61 -115 c441 -829 676 -1470 795
-2168 33 -195 24 -251 -48 -288 -32 -17 -142 -16 -182 1 -18 8 -18 -2 -13
-291 5 -312 14 -391 58 -524 36 -111 186 -459 523 -1219 515 -1156 686 -1577
877 -2157 l53 -162 42 -5 c154 -17 299 -187 339 -397 57 -306 120 -521 212
-726 162 -363 410 -638 711 -788 108 -54 264 -103 367 -115 50 -6 205 -10 345
-10 442 2 586 -42 824 -249 176 -153 484 -284 768 -326 58 -9 170 -16 248 -16
l142 0 197 -104 c108 -57 309 -161 446 -231 448 -229 712 -377 949 -534 77
-51 117 -71 139 -71 48 1 114 35 136 70 l19 32 16 -23 c13 -19 16 -51 16 -162
l0 -138 33 6 c46 8 415 51 587 70 1007 106 1798 71 2394 -104 93 -28 100 -29
140 -15 90 32 183 47 306 47 234 1 436 -69 805 -278 103 -58 116 -63 205 -74
106 -13 163 -4 180 29 15 27 12 85 -5 127 -8 19 -15 39 -15 44 0 17 160 89
272 122 62 19 218 56 346 82 309 63 302 65 467 -145 103 -131 159 -177 242
-194 l31 -7 4 178 c3 175 4 179 33 238 22 45 40 66 70 82 77 43 207 50 448 27
l58 -6 -3 163 c-4 237 -6 231 167 409 78 80 209 219 292 310 226 248 371 378
518 464 l49 29 30 -36 c105 -122 281 -305 288 -301 13 8 9 105 -7 169 -32 119
-87 217 -177 312 -46 48 -94 101 -106 117 -25 32 -29 78 -9 95 8 6 96 38 197
72 278 92 358 91 498 -7 35 -24 65 -44 67 -44 3 0 -11 28 -29 63 -61 112 -57
151 20 207 82 58 142 73 294 72 206 -1 279 18 351 95 67 70 105 173 118 319
l8 90 233 280 c128 153 300 368 381 477 437 582 812 1248 1148 2034 100 234
241 596 236 602 -10 10 -210 -154 -333 -273 -160 -156 -248 -262 -384 -466
-83 -124 -113 -162 -153 -188 -43 -30 -56 -33 -97 -29 -29 2 -64 15 -89 31
-22 15 -42 26 -44 24 -1 -2 -32 -99 -69 -217 -37 -118 -68 -217 -70 -219 -3
-2 -2 14 0 35 5 48 24 289 24 308 0 8 -102 -66 -227 -163 -1333 -1041 -2447
-1845 -3441 -2485 -239 -153 -342 -182 -453 -126 -45 22 -103 86 -131 144 -12
25 -25 45 -29 45 -4 0 -52 -39 -106 -86 -130 -114 -168 -142 -210 -150 -77
-15 -119 40 -110 145 2 36 8 74 12 85 7 17 6 17 -15 6 -17 -9 -59 -11 -160 -5
-186 9 -201 1 -259 -147 -40 -100 -58 -99 -113 4 -31 59 -63 88 -78 71 -5 -4
-18 -73 -30 -153 -30 -210 -33 -217 -41 -147 -7 65 -30 97 -67 97 -34 0 -112
-82 -138 -143 -10 -26 -22 -47 -26 -47 -4 0 -41 51 -82 113 -71 108 -167 224
-228 275 l-28 24 30 -63 c37 -79 64 -198 56 -244 -9 -48 -37 -46 -85 6 l-38
41 -11 -114 c-7 -63 -12 -126 -12 -140 0 -21 -9 -30 -47 -49 -29 -14 -90 -65
-155 -130 -58 -58 -122 -113 -140 -122 -20 -9 -87 -20 -163 -27 -400 -33 -749
-89 -1050 -168 -102 -26 -114 -27 -160 -15 -712 184 -1528 319 -2333 383 -140
11 -299 27 -355 35 -358 54 -659 151 -1012 325 -197 98 -455 244 -455 258 0 4
20 15 45 25 57 24 128 87 161 143 29 50 41 135 25 178 l-12 29 -25 -39 c-50
-77 -125 -111 -347 -156 l-149 -30 -42 38 c-22 21 -120 116 -216 210 -212 206
-377 362 -1017 956 -956 889 -1362 1289 -1804 1778 -390 431 -436 510 -750
1287 -153 379 -223 542 -262 610 l-19 33 -43 -45 c-67 -68 -117 -72 -177 -12
-62 62 -123 216 -112 281 22 136 135 187 235 106 21 -17 39 -29 39 -27 0 2
-47 333 -105 737 -58 403 -105 756 -105 785 0 94 36 200 140 414 57 117 106
234 115 271 8 36 74 603 146 1260 71 657 141 1260 155 1338 217 1239 805 2251
1942 3339 423 405 1056 986 1153 1059 92 69 242 162 474 294 99 57 207 120
240 140 96 60 685 409 857 508 857 495 1552 758 2293 867 298 44 387 49 890
50 362 1 506 5 550 14 174 38 266 127 301 290 14 68 19 362 7 434 -5 34 -9 38
-27 32 -12 -4 -54 -9 -94 -12 -69 -5 -78 -3 -145 31 -41 20 -123 78 -192 136
-119 99 -183 138 -300 183 l-60 22 -160 -58z m-8046 -12973 c46 -38 100 -137
182 -329 81 -193 148 -331 191 -393 l29 -42 -53 23 c-162 72 -257 182 -258
297 -1 107 -50 250 -135 389 -19 32 -35 64 -35 70 0 20 48 11 79 -15z m-250
-21 c5 -10 34 -101 65 -203 31 -102 59 -192 62 -200 7 -22 -5 -8 -123 140 -55
69 -107 131 -116 139 -28 22 -22 78 12 112 34 34 85 40 100 12z"/>
<path d="M12920 20821 c-208 -6 -229 -8 -272 -29 -60 -30 -133 -108 -164 -177
-14 -30 -27 -55 -28 -55 -1 0 -20 9 -42 19 -81 39 -124 46 -289 44 -243 -2
-353 -16 -430 -52 -171 -80 -269 -261 -236 -438 21 -114 63 -185 176 -298 197
-198 466 -342 791 -424 164 -42 280 -59 483 -73 l174 -12 186 -106 c701 -401
1238 -758 2500 -1664 716 -514 972 -693 1007 -707 16 -6 61 -11 99 -11 92 0
190 33 364 123 74 38 142 69 150 69 14 0 16 -24 16 -192 0 -292 34 -434 214
-892 131 -334 202 -430 439 -588 171 -113 277 -235 338 -386 51 -127 59 -176
59 -362 0 -187 -11 -265 -60 -414 l-25 -76 81 -163 c138 -274 269 -487 406
-657 100 -125 269 -291 343 -338 90 -57 101 -79 104 -210 3 -117 18 -167 63
-214 21 -22 36 -28 70 -28 36 0 50 6 85 38 23 20 54 55 70 76 18 26 28 33 28
22 0 -10 -16 -149 -35 -309 -56 -476 -68 -716 -45 -937 12 -114 40 -254 50
-243 3 4 14 105 24 223 40 504 116 983 216 1367 42 160 118 404 151 480 16 37
16 43 3 43 -49 0 -108 -56 -194 -183 -82 -122 -107 -144 -164 -154 l-39 -6 5
94 c6 116 -7 605 -22 794 -20 258 -59 616 -119 1085 -33 256 -67 526 -76 600
l-16 135 -1021 1634 c-1133 1813 -1060 1705 -1367 2011 -652 650 -1487 1121
-2502 1415 -370 107 -516 127 -979 130 -190 1 -446 -1 -570 -4z"/>
<path d="M12582 14920 c-83 -12 -164 -36 -232 -69 -30 -15 -299 -168 -598
-340 -299 -171 -553 -317 -566 -322 -21 -10 -31 -5 -80 35 -118 96 -273 154
-432 163 -118 7 -209 -7 -309 -46 -38 -15 -346 -186 -683 -379 -337 -194 -618
-355 -625 -358 -7 -2 -42 20 -77 50 -218 185 -504 257 -735 185 -66 -20 -81
-29 -1120 -659 -502 -304 -523 -318 -611 -406 -79 -77 -99 -104 -137 -185 -99
-204 -111 -398 -37 -599 28 -77 397 -750 456 -830 69 -95 185 -189 298 -240
107 -49 179 -63 311 -63 128 0 201 14 301 58 50 22 1280 759 1303 781 2 2 -10
20 -27 42 -17 21 -57 84 -90 140 l-59 102 -614 -372 c-338 -204 -633 -380
-657 -390 -150 -67 -331 -31 -450 89 -47 49 -89 116 -244 398 -214 388 -229
427 -211 550 11 75 43 151 90 211 39 49 92 83 900 573 784 476 763 465 887
444 61 -10 154 -46 203 -79 l23 -14 -47 -68 c-143 -208 -178 -449 -98 -685 22
-65 284 -535 366 -657 147 -219 392 -340 664 -328 153 7 227 34 465 170 200
114 801 459 923 530 l68 39 -37 52 -38 52 58 -63 c153 -165 336 -246 561 -246
132 0 208 15 310 63 104 48 1406 800 1466 847 190 146 305 408 284 647 -7 88
-36 199 -66 261 -66 131 -342 597 -386 651 -157 190 -427 297 -671 265z m264
-401 c68 -26 137 -72 173 -118 34 -43 282 -470 318 -548 51 -111 50 -230 -5
-347 -54 -115 -70 -126 -787 -538 -363 -209 -685 -392 -716 -408 -115 -59
-247 -60 -368 -2 -96 45 -142 103 -302 382 -81 140 -153 275 -162 300 -46 139
-20 282 70 395 41 52 80 77 409 266 164 94 463 266 664 382 201 116 385 219
409 230 86 38 204 40 297 6z m-2039 -534 l43 -17 -48 -53 c-169 -191 -230
-467 -156 -716 20 -68 42 -111 171 -337 58 -101 104 -185 102 -187 -24 -24
-1141 -655 -1189 -672 -142 -49 -289 -17 -405 89 -43 39 -79 93 -176 260 -180
312 -196 345 -210 421 -23 127 22 265 119 360 34 33 234 153 737 443 380 218
715 405 745 415 69 24 204 21 267 -6z"/>
<path d="M11441 13750 c-125 -73 -161 -98 -161 -112 0 -6 29 -62 65 -123 112
-193 120 -215 120 -330 0 -89 -3 -107 -28 -160 -15 -33 -41 -77 -57 -97 -17
-20 -30 -39 -30 -43 0 -10 129 -229 149 -252 11 -13 24 -23 29 -23 6 0 39 32
75 70 125 135 197 321 197 508 0 125 -22 217 -80 337 -59 119 -151 277 -165
282 -5 1 -57 -24 -114 -57z"/>
<path d="M9395 13175 c-55 -36 -112 -73 -127 -82 -16 -10 -28 -21 -28 -26 0
-4 39 -80 86 -168 71 -133 87 -170 91 -217 6 -68 -18 -139 -77 -231 l-39 -61
56 -97 c31 -54 71 -120 91 -146 l35 -48 29 28 c93 88 195 272 224 400 22 98
15 243 -15 328 -20 56 -209 386 -221 385 -3 -1 -50 -30 -105 -65z"/>
<path d="M5754 10590 c-16 -5 -41 -21 -55 -36 -23 -25 -24 -31 -31 -242 -26
-785 -31 -1053 -20 -1134 20 -138 82 -239 179 -288 40 -21 62 -25 133 -25 110
0 167 28 189 91 13 38 13 44 -5 75 -20 34 -21 34 -96 34 -67 0 -80 3 -102 24
-46 43 -51 78 -49 316 1 121 8 371 15 555 20 517 17 587 -32 617 -27 18 -89
24 -126 13z"/>
<path d="M8965 10589 c-17 -4 -44 -22 -60 -39 -28 -29 -29 -35 -28 -109 1 -43
7 -116 13 -162 13 -109 13 -253 -2 -714 -12 -385 -6 -562 22 -641 19 -55 116
-82 179 -49 47 24 54 58 49 231 l-5 154 80 65 c43 36 86 65 94 65 29 0 128
-116 187 -221 82 -145 152 -230 217 -263 88 -43 196 -31 256 29 27 27 33 41
33 77 0 59 -21 78 -84 78 -32 0 -57 7 -77 21 -16 11 -76 91 -134 178 -95 143
-178 241 -205 241 -28 0 5 29 168 148 105 77 183 141 190 157 53 115 -60 195
-186 131 -92 -47 -273 -186 -451 -349 -41 -37 -77 -64 -80 -61 -3 3 -6 220 -6
483 0 445 -1 479 -18 505 -19 28 -72 57 -104 55 -10 0 -32 -5 -48 -10z"/>
<path d="M11505 10581 c-47 -22 -83 -58 -93 -94 -4 -15 -4 -122 0 -239 9 -284
11 -1042 2 -1187 -6 -108 -5 -118 15 -142 42 -54 132 -75 190 -45 55 29 56 33
62 270 5 191 9 230 28 291 89 274 293 404 379 240 12 -23 17 -82 23 -260 9
-279 26 -371 86 -458 41 -59 101 -89 189 -95 127 -8 204 37 204 119 0 51 -32
74 -88 64 -58 -10 -90 8 -114 62 -19 42 -23 80 -33 328 -11 275 -12 281 -39
335 -35 71 -118 155 -173 176 -33 13 -63 16 -125 11 -114 -8 -205 -53 -286
-143 l-59 -65 -6 78 c-4 43 -2 215 4 383 13 341 11 352 -46 375 -45 19 -71 19
-120 -4z"/>
<path d="M14158 10499 c-23 -13 -38 -71 -38 -147 0 -59 2 -66 34 -98 31 -31
40 -34 91 -34 67 0 147 31 170 66 8 13 15 44 15 70 0 40 -5 51 -38 84 -56 56
-184 88 -234 59z"/>
<path d="M4288 10482 c-205 -19 -219 -24 -266 -93 l-24 -34 7 -320 c4 -176 13
-485 19 -687 10 -343 12 -368 31 -388 48 -53 127 -72 379 -91 163 -12 379 0
495 27 155 35 329 172 398 312 36 72 38 81 38 171 0 85 -3 103 -28 153 -47 96
-127 154 -260 187 l-70 18 36 12 c58 19 132 94 169 169 31 63 33 74 33 172 0
128 -22 185 -95 254 -146 136 -412 179 -862 138z m534 -240 c36 -18 82 -50
101 -72 38 -41 62 -108 53 -145 -13 -52 -113 -148 -199 -192 -53 -26 -90 -33
-312 -58 -205 -23 -181 -37 -189 113 -3 70 -7 179 -7 242 l-1 114 29 8 c69 18
177 26 313 25 142 -2 147 -3 212 -35z m78 -688 c142 -42 190 -86 190 -173 0
-160 -92 -245 -315 -293 -67 -14 -387 -18 -447 -5 l-38 8 0 223 0 223 83 7
c45 4 129 13 187 21 124 17 263 12 340 -11z"/>
<path d="M6708 9960 c-108 -27 -188 -70 -237 -127 -91 -105 -169 -320 -158
-432 9 -78 61 -253 91 -305 49 -84 178 -178 296 -216 60 -19 85 -22 163 -18
154 9 268 60 373 167 112 115 147 218 148 436 0 117 -2 136 -25 190 -47 113
-134 208 -237 260 -117 59 -288 77 -414 45z m278 -221 c59 -30 98 -77 125
-154 30 -84 30 -266 0 -328 -54 -111 -134 -168 -246 -175 -86 -5 -127 6 -189
54 -57 43 -70 69 -92 175 -14 70 -15 96 -6 155 23 149 88 256 175 288 62 23
172 16 233 -15z"/>
<path d="M8001 9955 c-145 -51 -253 -148 -320 -289 -47 -97 -61 -160 -61 -269
0 -157 43 -261 155 -372 111 -111 244 -165 407 -165 181 0 379 76 424 162 27
53 23 96 -14 129 -46 41 -91 39 -199 -10 -118 -53 -166 -63 -239 -50 -108 20
-195 84 -241 177 -25 50 -28 68 -28 152 0 81 4 103 26 150 47 100 120 164 217
190 65 17 99 4 167 -60 101 -95 128 -106 199 -76 62 26 74 128 23 205 -57 87
-183 142 -337 148 -93 3 -113 1 -179 -22z"/>
<path d="M10553 9965 c-202 -55 -359 -234 -399 -457 -74 -408 269 -719 696
-634 234 47 368 185 269 277 -44 41 -90 39 -200 -11 -115 -52 -162 -62 -232
-50 -73 12 -132 42 -190 98 -63 62 -87 126 -87 235 1 171 97 304 247 338 69
16 99 3 186 -80 67 -64 70 -66 122 -66 42 0 59 5 78 23 72 68 23 207 -97 277
-106 61 -274 82 -393 50z"/>
<path d="M14235 9969 c-16 -5 -39 -17 -51 -27 -47 -40 -47 -42 -35 -411 22
-672 15 -624 91 -653 73 -28 123 -24 166 14 34 30 36 35 29 72 -4 23 -10 241
-14 486 -7 465 -8 481 -52 508 -27 17 -98 23 -134 11z"/>
<path d="M13057 9949 c-190 -54 -287 -164 -230 -260 32 -54 77 -51 216 17 l92
45 96 -3 c170 -6 230 -58 237 -206 l4 -74 -29 15 c-88 46 -261 60 -382 32
-156 -37 -290 -138 -326 -244 -35 -106 2 -251 82 -322 21 -17 62 -43 93 -58
128 -59 394 -31 531 55 l37 23 41 -39 c127 -121 391 -76 391 68 0 43 -27 62
-88 62 -64 0 -99 15 -110 49 -5 15 -5 80 0 151 5 69 8 181 6 250 -3 117 -5
130 -35 193 -38 80 -120 170 -185 203 -127 64 -306 82 -441 43z m258 -614 c32
-9 78 -24 102 -35 40 -17 43 -22 43 -57 0 -69 -8 -80 -83 -117 -141 -69 -292
-87 -358 -43 -44 30 -61 63 -55 111 8 72 65 121 166 142 76 17 116 16 185 -1z"/>
<path d="M14745 9949 c-89 -47 -125 -112 -91 -164 26 -40 57 -50 111 -36 60
15 80 4 112 -65 24 -52 25 -65 26 -252 2 -146 -3 -231 -17 -327 -21 -152 -17
-171 44 -211 84 -56 193 -35 204 38 3 18 7 128 10 243 10 411 74 549 261 562
81 5 128 -21 167 -96 l28 -54 -1 -238 c-1 -221 1 -243 21 -305 30 -91 86 -147
160 -163 93 -20 174 9 205 75 26 56 18 75 -45 99 -45 17 -59 28 -75 60 -18 37
-20 61 -21 280 -1 220 -2 245 -22 299 -46 124 -112 200 -218 252 -51 25 -61
26 -162 22 -158 -7 -246 -50 -321 -154 l-41 -57 -10 27 c-5 15 -10 30 -10 34
0 4 -15 28 -32 55 -62 90 -191 125 -283 76z"/>
<path d="M7390 8455 l0 -145 -45 0 -45 0 0 -90 0 -90 44 0 44 0 4 -147 c3
-127 7 -155 26 -198 29 -63 92 -129 157 -163 44 -23 65 -27 168 -30 l117 -4 0
91 0 91 -80 0 c-93 0 -135 14 -173 59 -26 32 -27 35 -27 167 l0 134 140 0 140
0 0 90 0 90 -140 0 -140 0 0 145 0 145 -95 0 -95 0 0 -145z"/>
<path d="M9840 8095 l0 -505 95 0 95 0 0 48 c0 44 6 57 62 131 54 72 63 80 72
64 5 -10 38 -67 72 -128 l61 -110 107 -3 c59 -1 106 1 103 5 -2 4 -55 97 -117
206 -96 170 -111 202 -102 220 6 12 58 81 115 152 l105 130 -96 3 c-52 1 -101
1 -108 -2 -6 -2 -71 -79 -143 -171 l-131 -167 0 316 0 316 -95 0 -95 0 0 -505z"/>
<path d="M15320 8095 l0 -505 95 0 95 0 0 45 c0 41 7 55 64 130 74 99 56 107
152 -67 l59 -108 102 0 c57 0 103 3 103 6 0 3 -52 98 -116 211 l-115 204 115
144 c64 80 116 147 116 150 0 3 -46 5 -103 5 l-102 0 -135 -171 -135 -171 -3
316 -2 316 -95 0 -95 0 0 -505z"/>
<path d="M4225 8551 c-260 -64 -302 -421 -64 -540 60 -30 67 -31 188 -31 141
0 193 -10 216 -43 17 -25 20 -79 5 -108 -24 -43 -56 -49 -290 -49 l-220 0 0
-95 0 -95 238 0 c272 0 301 6 377 72 68 60 99 126 99 213 0 92 -29 160 -96
220 -69 62 -119 75 -286 75 l-134 0 -29 29 c-35 36 -40 95 -10 132 19 24 21
24 268 29 l248 5 3 98 3 97 -243 -1 c-134 -1 -256 -4 -273 -8z"/>
<path d="M8290 8460 l0 -100 145 0 145 0 0 -385 0 -385 100 0 100 0 0 385 0
384 143 3 142 3 3 98 3 97 -391 0 -390 0 0 -100z"/>
<path d="M12402 8463 l3 -98 143 -3 142 -3 0 -384 0 -385 100 0 100 0 0 385 0
384 143 3 142 3 3 98 3 97 -391 0 -391 0 3 -97z"/>
<path d="M6163 8325 c-102 -31 -185 -104 -232 -204 -23 -50 -26 -68 -26 -166
0 -100 3 -116 29 -173 93 -202 348 -268 532 -137 27 19 52 35 55 35 3 0 20
-20 38 -45 23 -32 39 -45 57 -45 l24 0 0 360 0 360 -24 0 c-16 0 -36 -14 -58
-41 l-34 -41 -59 41 c-96 67 -203 87 -302 56z m192 -199 c85 -50 118 -166 73
-256 -85 -165 -305 -137 -339 44 -16 90 27 192 95 222 51 22 123 18 171 -10z"/>
<path d="M9263 8326 c-104 -34 -185 -106 -232 -205 -23 -50 -26 -68 -26 -166
0 -100 2 -115 28 -167 137 -279 534 -280 663 -2 93 198 13 436 -172 521 -69
31 -196 41 -261 19z m180 -190 c71 -29 113 -112 104 -204 -14 -132 -144 -210
-256 -152 -109 55 -140 195 -69 300 44 64 143 89 221 56z"/>
<path d="M10777 8321 c-108 -36 -197 -127 -232 -236 -26 -83 -18 -221 17 -295
107 -228 399 -285 588 -113 22 19 40 41 40 47 0 6 -29 40 -64 75 l-63 63 -22
-30 c-26 -38 -95 -72 -144 -72 -20 0 -37 3 -37 8 0 4 77 99 170 212 l170 205
-47 47 c-93 95 -247 131 -376 89z m163 -178 c0 -15 -201 -273 -209 -268 -5 2
-12 25 -15 49 -13 85 29 176 96 209 32 16 128 24 128 10z"/>
<path d="M13983 8326 c-107 -35 -195 -115 -235 -215 -18 -45 -23 -76 -23 -161
0 -93 3 -112 27 -162 53 -115 149 -187 273 -207 101 -15 174 3 272 70 23 16
44 29 47 29 2 0 19 -20 37 -45 22 -31 40 -45 56 -45 l23 0 0 360 0 360 -22 0
c-15 0 -36 -15 -59 -42 l-36 -41 -39 31 c-88 70 -225 99 -321 68z m187 -196
c22 -11 52 -39 67 -62 24 -36 28 -52 28 -114 0 -66 -3 -76 -31 -110 -58 -72
-111 -94 -189 -80 -43 8 -103 59 -121 103 -20 46 -17 140 5 189 17 38 54 73
91 87 35 13 112 6 150 -13z"/>
<path d="M14833 8326 c-224 -73 -336 -334 -233 -543 64 -129 187 -205 330
-205 103 0 175 28 248 97 l57 54 -67 67 -67 67 -27 -33 c-118 -140 -336 -52
-322 129 9 113 67 181 164 189 31 3 67 -1 84 -8 29 -12 83 -65 93 -92 3 -8 27
9 71 52 36 35 66 68 66 73 0 4 -20 30 -45 56 -84 90 -241 133 -352 97z"/>
<path d="M5101 8319 c-23 -4 -62 -20 -86 -33 l-42 -25 -23 24 c-13 14 -34 25
-47 25 l-23 0 0 -360 0 -360 90 0 90 0 0 230 c0 245 7 287 48 309 26 14 68 14
93 1 44 -24 49 -55 49 -305 l0 -235 90 0 90 0 0 235 c0 250 5 281 49 305 25
13 67 13 92 0 44 -24 49 -55 49 -305 l0 -235 90 0 90 0 0 253 c0 203 -3 263
-16 299 -35 105 -143 181 -257 180 -66 0 -128 -20 -163 -53 l-22 -21 -42 31
c-55 40 -127 55 -199 40z"/>
<path d="M11539 8317 c-25 -7 -67 -26 -93 -41 l-48 -28 -32 31 c-18 17 -42 31
-54 31 l-22 0 0 -360 0 -360 95 0 95 0 0 228 c0 255 4 273 73 305 68 33 141
14 177 -46 18 -29 20 -52 20 -259 l0 -228 96 0 95 0 -3 248 -3 247 -28 57
c-67 136 -230 214 -368 175z"/>
<path d="M6780 7950 l0 -360 89 0 90 0 3 218 c3 187 6 222 21 250 28 51 83 72
195 72 l92 0 0 91 0 91 -127 -4 c-131 -4 -158 -11 -235 -62 l-27 -17 -27 40
c-19 29 -34 41 -50 41 l-24 0 0 -360z"/>
<path d="M13200 7950 l0 -360 90 0 90 0 0 211 c0 234 5 260 64 302 26 19 47
22 138 26 l108 3 0 89 0 89 -108 0 c-120 0 -182 -14 -242 -54 l-39 -26 -28 40
c-18 26 -36 40 -50 40 l-23 0 0 -360z"/>
</g>
</svg>
